<?xml version="1.0" encoding="UTF-8"?>
<svg width="40px" height="40px" viewBox="0 0 40 40" version="1.1" xmlns="http://www.w3.org/2000/svg" xmlns:xlink="http://www.w3.org/1999/xlink">
    <!-- Generator: Sketch 52.4 (67378) - http://www.bohemiancoding.com/sketch -->
    <title>Group</title>
    <desc>Created with Sketch.</desc>
    <g id="デザイン" stroke="none" stroke-width="1" fill="none" fill-rule="evenodd">
        <g id="HOME" transform="translate(-462.000000, -780.000000)">
            <g id="Group-3" transform="translate(462.000000, 780.000000)">
                <g id="Group">
                    <circle id="Oval" fill="#5DAAC3" fill-rule="nonzero" cx="20" cy="20" r="20"></circle>
                    <g id="twitter-logo-silhouette" transform="translate(6.000000, 9.000000)" fill="#FFFFFF">
                        <path d="M29,2.72126191 C27.9326371,3.18304873 26.7873722,3.49622726 25.5840598,3.63604489 C26.8127236,2.91766358 27.7532349,1.77821005 28.1989922,0.424634745 C27.0464772,1.08990202 25.7743134,1.57297146 24.4187981,1.83484035 C23.3333339,0.704223737 21.7893657,0 20.0768465,0 C16.7914065,0 14.1275247,2.60096878 14.1275247,5.80705827 C14.1275247,6.2617663 14.1800755,6.70587928 14.2815756,7.13056029 C9.33801526,6.88812337 4.95441169,4.57558049 2.02052618,1.06158686 C1.50767076,1.91798141 1.21591702,2.91585918 1.21591702,3.98105484 C1.21591702,5.99638115 2.26697919,7.77459119 3.86169749,8.81494169 C2.88673674,8.78311028 1.96977609,8.52124139 1.16701498,8.08596533 L1.16701498,8.15851134 C1.16701498,10.9717975 3.21838925,13.3197343 5.9384231,13.8541134 C5.44006771,13.9850478 4.91456032,14.0575939 4.3709042,14.0575939 C3.98674834,14.0575939 3.61524447,14.0204418 3.25099061,13.9496539 C4.00845099,16.2586805 6.2048255,17.9377875 8.80710589,17.9838228 C6.77203231,19.5408785 4.20600197,20.4662566 1.41891735,20.4662566 C0.938710684,20.4662566 0.465706643,20.4379414 0,20.3866318 C2.6330811,22.0374699 5.75906823,23 9.11880902,23 C20.0624413,23 26.0444118,14.1496181 26.0444118,6.47412994 L26.0244625,5.72215908 C27.1932781,4.908191 28.2044415,3.88551433 29,2.72126191 Z" id="Path"></path>
                    </g>
                </g>
            </g>
        </g>
    </g>
</svg>